<svg width="502" height="94" xmlns="http://www.w3.org/2000/svg">

 <g>
  <title>background</title>
  <rect fill="none" id="canvas_background" height="96" width="504" y="-1" x="-1"/>
 </g>
 <g>
  <title>Layer 1</title>
  <g stroke="null" id="svg_1" clip-rule="evenodd" fill-rule="evenodd">
   <path stroke="null" id="svg_2" d="m-0.018,-221.54462l504.21944,0l0,540.86096l-504.21944,0l0,-540.86096z" fill-opacity="0" fill="#fff"/>
   <path stroke="null" id="svg_3" fill="#ce3736" d="m47.86762,38.21489c6.7201,-0.01684 11.98579,0.07576 18.70589,0.05892c13.96075,-0.72113 20.31464,-18.55285 6.19693,-19.49003l-12.79932,-0.00561c-4.10426,0 -7.33221,2.06797 -8.75784,6.35264l-3.34566,13.08408zm-10.16778,36.65955c6.7201,-0.01684 11.98579,0.07576 18.70589,0.05892c20.98429,-0.19642 24.72233,-26.90331 6.84828,-25.91282l-18.51494,0l-3.69619,12.76981l-3.34305,13.08408zm19.19767,13.03918l-49.50221,0l23.00896,-80.06457l51.96895,0c38.54968,0 26.09827,30.59031 7.51793,34.90304c-0.33744,0.15713 -0.4133,0.8502 0.18311,1.07187c23.08481,7.64898 17.28026,45.48983 -33.17674,44.08967zm76.07395,0.08137l-24.56277,0c0,-1.99502 10.67526,-38.01482 11.01531,-39.11755c7.02354,-22.90485 37.64198,-24.13385 56.3845,-22.38295l-2.45104,10.6822c-25.62741,-1.15605 -27.89273,7.4666 -33.80454,27.9836l-6.58146,22.83471z"/>
   <path stroke="null" id="svg_4" fill="#ce3736" d="m214.6407,69.75641c-2.14238,8.75733 -14.41853,8.24945 -18.74775,2.4103c-5.93535,-8.00814 -1.81278,-26.45436 27.7227,-34.0809c-2.83034,10.12382 -7.23804,25.94649 -8.97496,31.6706zm20.40096,18.01691l-47.6502,-0.30304c-39.71373,-0.74357 -28.51269,-67.07589 64.4596,-60.79902l-16.80941,61.10206zm161.0156,-17.27334c-2.14499,8.75733 -14.42376,8.25226 -18.75036,2.4103c-5.93796,-8.00533 -1.81278,-26.45436 27.7227,-34.0809c-2.83034,10.12382 -7.23542,25.94649 -8.97234,31.6706zm20.40096,18.01972l-47.65281,-0.30304c-35.88675,-0.67062 -30.19991,-54.89813 39.82621,-60.71764l5.02242,-18.30873l24.98392,0.0477l-22.17973,79.28172zm-138.25777,-0.74638l-25.05193,0.35074l10.82697,-36.19938c9.77279,-26.55257 29.78137,-25.59575 57.54331,-24.47337c9.81987,0.67904 22.69505,3.18754 17.28811,21.56081a1997.67747,2142.84825 0 0 0 -11.08071,38.93797l-25.54109,0.35074l10.60724,-36.48839c3.72496,-11.35843 -0.51532,-14.80973 -6.31988,-15.09874c-9.94805,-0.49665 -16.39087,6.25443 -17.82435,13.41798l-10.44768,37.64163zm208.95616,-12.89889l-3.09716,12.72492c-9.05866,1.46189 -24.76942,3.98723 -34.27278,0.74918c-9.8408,-2.85644 -11.88901,-10.21641 -9.54783,-18.35363c0.00523,-0.02245 16.97159,-55.03001 16.97159,-60.84672l24.72233,0.35074l-4.48617,19.31045l19.33893,0.30304l-2.12406,9.89934l-20.47682,-0.17397l-7.17264,25.91562c-4.3266,15.62626 12.55866,10.7327 20.14461,10.12101z"/>
  </g>
 </g>
</svg>